<mxfile host="app.diagrams.net" modified="2022-03-03T06:58:25.000Z" agent="5.0 (Windows NT 10.0; Win64; x64) AppleWebKit/537.36 (KHTML, like Gecko) Chrome/96.0.4664.45 Safari/537.36" etag="REZrk2j54Om5LDUxV-6I" version="16.6.4" type="github">
  <diagram id="1-lpUVrziz9LWtipDUoS" name="Page-1">
    <mxGraphModel dx="2037" dy="607" grid="1" gridSize="10" guides="1" tooltips="1" connect="1" arrows="1" fold="1" page="1" pageScale="1" pageWidth="827" pageHeight="1169" math="0" shadow="0">
      <root>
        <mxCell id="0" />
        <mxCell id="1" parent="0" />
        <mxCell id="7Pp4aDeVOUlTDWOkgIp9-12" value="" style="shape=cylinder3;whiteSpace=wrap;html=1;boundedLbl=1;backgroundOutline=1;size=15;fillColor=#F2F2F2;" vertex="1" parent="1">
          <mxGeometry x="-150" y="670" width="60" height="80" as="geometry" />
        </mxCell>
        <mxCell id="7Pp4aDeVOUlTDWOkgIp9-2" value="" style="rounded=0;whiteSpace=wrap;html=1;fillColor=#97D077;" vertex="1" parent="1">
          <mxGeometry x="-360" y="190" width="1040" height="710" as="geometry" />
        </mxCell>
        <mxCell id="7Pp4aDeVOUlTDWOkgIp9-11" value="" style="shape=cylinder3;whiteSpace=wrap;html=1;boundedLbl=1;backgroundOutline=1;size=15;fillColor=#F2F2F2;" vertex="1" parent="1">
          <mxGeometry x="-150" y="670" width="60" height="80" as="geometry" />
        </mxCell>
        <mxCell id="VtvNqMEHdlJ7I6D5ilD2-4" value="" style="rounded=0;whiteSpace=wrap;html=1;fillColor=#F2F2F2;" parent="1" vertex="1">
          <mxGeometry x="-518" y="190" width="120" height="710" as="geometry" />
        </mxCell>
        <mxCell id="MXucs27VVyxfBu9uyTxn-61" value="" style="ellipse;shape=cloud;whiteSpace=wrap;html=1;fillColor=#F2F2F2;" parent="1" vertex="1">
          <mxGeometry x="310" y="720" width="120" height="80" as="geometry" />
        </mxCell>
        <mxCell id="MXucs27VVyxfBu9uyTxn-52" value="" style="rounded=0;whiteSpace=wrap;html=1;fillColor=#66FFFF;" parent="1" vertex="1">
          <mxGeometry x="700" y="272.5" width="180" height="355" as="geometry" />
        </mxCell>
        <mxCell id="MXucs27VVyxfBu9uyTxn-27" value="" style="rounded=0;whiteSpace=wrap;html=1;" parent="1" vertex="1">
          <mxGeometry x="273" y="300" width="190" height="330" as="geometry" />
        </mxCell>
        <mxCell id="MXucs27VVyxfBu9uyTxn-1" value="酷我音乐" style="rounded=0;whiteSpace=wrap;html=1;" parent="1" vertex="1">
          <mxGeometry x="734" y="297.5" width="120" height="60" as="geometry" />
        </mxCell>
        <mxCell id="MXucs27VVyxfBu9uyTxn-2" value="喜马拉雅电台" style="rounded=0;whiteSpace=wrap;html=1;" parent="1" vertex="1">
          <mxGeometry x="734" y="397.5" width="120" height="60" as="geometry" />
        </mxCell>
        <mxCell id="MXucs27VVyxfBu9uyTxn-3" value="云听" style="rounded=0;whiteSpace=wrap;html=1;" parent="1" vertex="1">
          <mxGeometry x="732" y="527.5" width="120" height="60" as="geometry" />
        </mxCell>
        <mxCell id="MXucs27VVyxfBu9uyTxn-4" value="酷我音乐集成服务" style="rounded=0;whiteSpace=wrap;html=1;" parent="1" vertex="1">
          <mxGeometry x="310" y="330" width="120" height="60" as="geometry" />
        </mxCell>
        <mxCell id="MXucs27VVyxfBu9uyTxn-5" value="喜马拉雅电台服务" style="rounded=0;whiteSpace=wrap;html=1;" parent="1" vertex="1">
          <mxGeometry x="310" y="420" width="120" height="60" as="geometry" />
        </mxCell>
        <mxCell id="MXucs27VVyxfBu9uyTxn-6" value="云听集成服务" style="rounded=0;whiteSpace=wrap;html=1;" parent="1" vertex="1">
          <mxGeometry x="310" y="510" width="120" height="60" as="geometry" />
        </mxCell>
        <mxCell id="MXucs27VVyxfBu9uyTxn-7" value="账号绑定同步" style="text;html=1;strokeColor=none;fillColor=none;align=center;verticalAlign=middle;whiteSpace=wrap;rounded=0;" parent="1" vertex="1">
          <mxGeometry x="370" y="260" width="60" height="30" as="geometry" />
        </mxCell>
        <mxCell id="MXucs27VVyxfBu9uyTxn-8" value="多媒体聚合服务" style="rounded=0;whiteSpace=wrap;html=1;" parent="1" vertex="1">
          <mxGeometry x="-260" y="460.5" width="120" height="60" as="geometry" />
        </mxCell>
        <mxCell id="MXucs27VVyxfBu9uyTxn-13" value="" style="endArrow=classic;html=1;rounded=0;" parent="1" edge="1">
          <mxGeometry width="50" height="50" relative="1" as="geometry">
            <mxPoint x="-140" y="490" as="sourcePoint" />
            <mxPoint x="300" y="360" as="targetPoint" />
            <Array as="points">
              <mxPoint x="240" y="380" />
            </Array>
          </mxGeometry>
        </mxCell>
        <mxCell id="MXucs27VVyxfBu9uyTxn-14" value="" style="endArrow=classic;html=1;rounded=0;" parent="1" edge="1">
          <mxGeometry width="50" height="50" relative="1" as="geometry">
            <mxPoint x="-140" y="491" as="sourcePoint" />
            <mxPoint x="300" y="450" as="targetPoint" />
          </mxGeometry>
        </mxCell>
        <mxCell id="MXucs27VVyxfBu9uyTxn-21" value="自定义栏目，定义标签" style="text;html=1;strokeColor=none;fillColor=none;align=center;verticalAlign=middle;whiteSpace=wrap;rounded=0;" parent="1" vertex="1">
          <mxGeometry x="-370" y="607" width="120" height="10" as="geometry" />
        </mxCell>
        <mxCell id="MXucs27VVyxfBu9uyTxn-22" value="数据标准化" style="shape=process;whiteSpace=wrap;html=1;backgroundOutline=1;" parent="1" vertex="1">
          <mxGeometry x="130" y="736" width="120" height="60" as="geometry" />
        </mxCell>
        <mxCell id="MXucs27VVyxfBu9uyTxn-24" value="HTTPS" style="text;html=1;strokeColor=none;fillColor=none;align=center;verticalAlign=middle;whiteSpace=wrap;rounded=0;" parent="1" vertex="1">
          <mxGeometry x="530" y="320" width="60" height="30" as="geometry" />
        </mxCell>
        <mxCell id="MXucs27VVyxfBu9uyTxn-25" value="HTTPS" style="text;html=1;strokeColor=none;fillColor=none;align=center;verticalAlign=middle;whiteSpace=wrap;rounded=0;" parent="1" vertex="1">
          <mxGeometry x="520" y="420" width="60" height="30" as="geometry" />
        </mxCell>
        <mxCell id="MXucs27VVyxfBu9uyTxn-26" value="HTTPS" style="text;html=1;strokeColor=none;fillColor=none;align=center;verticalAlign=middle;whiteSpace=wrap;rounded=0;" parent="1" vertex="1">
          <mxGeometry x="530" y="510" width="60" height="30" as="geometry" />
        </mxCell>
        <mxCell id="MXucs27VVyxfBu9uyTxn-33" value="kafka" style="text;html=1;strokeColor=none;fillColor=none;align=center;verticalAlign=middle;whiteSpace=wrap;rounded=0;" parent="1" vertex="1">
          <mxGeometry x="338" y="746.5" width="60" height="30" as="geometry" />
        </mxCell>
        <mxCell id="MXucs27VVyxfBu9uyTxn-35" value="" style="endArrow=classic;html=1;rounded=0;entryX=0.245;entryY=0.704;entryDx=0;entryDy=0;entryPerimeter=0;" parent="1" edge="1">
          <mxGeometry width="50" height="50" relative="1" as="geometry">
            <mxPoint x="-175.56" y="525" as="sourcePoint" />
            <mxPoint x="-140.0999999999999" y="689.8399999999999" as="targetPoint" />
          </mxGeometry>
        </mxCell>
        <mxCell id="MXucs27VVyxfBu9uyTxn-36" value="" style="endArrow=classic;html=1;rounded=0;" parent="1" edge="1">
          <mxGeometry width="50" height="50" relative="1" as="geometry">
            <mxPoint x="-270" y="761.0255102040817" as="sourcePoint" />
            <mxPoint x="-150" y="732.1275510204082" as="targetPoint" />
          </mxGeometry>
        </mxCell>
        <mxCell id="MXucs27VVyxfBu9uyTxn-37" value="数据同步" style="text;html=1;strokeColor=none;fillColor=none;align=center;verticalAlign=middle;whiteSpace=wrap;rounded=0;" parent="1" vertex="1">
          <mxGeometry x="-250" y="716.5" width="60" height="30" as="geometry" />
        </mxCell>
        <mxCell id="MXucs27VVyxfBu9uyTxn-43" value="" style="endArrow=classic;html=1;rounded=0;entryX=0;entryY=0.5;entryDx=0;entryDy=0;" parent="1" target="MXucs27VVyxfBu9uyTxn-1" edge="1">
          <mxGeometry width="50" height="50" relative="1" as="geometry">
            <mxPoint x="460" y="370" as="sourcePoint" />
            <mxPoint x="510" y="320" as="targetPoint" />
          </mxGeometry>
        </mxCell>
        <mxCell id="MXucs27VVyxfBu9uyTxn-44" value="" style="endArrow=classic;html=1;rounded=0;entryX=-0.039;entryY=0.637;entryDx=0;entryDy=0;exitX=0.947;exitY=0.515;exitDx=0;exitDy=0;exitPerimeter=0;entryPerimeter=0;" parent="1" source="MXucs27VVyxfBu9uyTxn-27" target="MXucs27VVyxfBu9uyTxn-2" edge="1">
          <mxGeometry width="50" height="50" relative="1" as="geometry">
            <mxPoint x="470" y="380" as="sourcePoint" />
            <mxPoint x="680" y="340" as="targetPoint" />
          </mxGeometry>
        </mxCell>
        <mxCell id="MXucs27VVyxfBu9uyTxn-45" value="" style="endArrow=classic;html=1;rounded=0;entryX=0;entryY=0.5;entryDx=0;entryDy=0;exitX=1;exitY=0.75;exitDx=0;exitDy=0;" parent="1" source="MXucs27VVyxfBu9uyTxn-27" target="MXucs27VVyxfBu9uyTxn-3" edge="1">
          <mxGeometry width="50" height="50" relative="1" as="geometry">
            <mxPoint x="459.92999999999984" y="479.95000000000005" as="sourcePoint" />
            <mxPoint x="675.3199999999997" y="448.22000000000014" as="targetPoint" />
          </mxGeometry>
        </mxCell>
        <mxCell id="MXucs27VVyxfBu9uyTxn-46" value="" style="endArrow=classic;html=1;rounded=0;entryX=0;entryY=0.5;entryDx=0;entryDy=0;dashed=1;dashPattern=1 1;" parent="1" edge="1" target="VtvNqMEHdlJ7I6D5ilD2-10">
          <mxGeometry width="50" height="50" relative="1" as="geometry">
            <mxPoint x="790" y="630" as="sourcePoint" />
            <mxPoint x="645.0999999999999" y="836.97" as="targetPoint" />
            <Array as="points">
              <mxPoint x="790" y="880" />
              <mxPoint x="-540" y="880" />
              <mxPoint x="-540" y="836" />
            </Array>
          </mxGeometry>
        </mxCell>
        <mxCell id="MXucs27VVyxfBu9uyTxn-47" value="账号服务" style="rounded=0;whiteSpace=wrap;html=1;" parent="1" vertex="1">
          <mxGeometry x="310" y="197" width="120" height="60" as="geometry" />
        </mxCell>
        <mxCell id="MXucs27VVyxfBu9uyTxn-48" value="" style="endArrow=classic;html=1;rounded=0;exitX=0.5;exitY=0;exitDx=0;exitDy=0;" parent="1" source="MXucs27VVyxfBu9uyTxn-27" target="MXucs27VVyxfBu9uyTxn-47" edge="1">
          <mxGeometry width="50" height="50" relative="1" as="geometry">
            <mxPoint x="300" y="310" as="sourcePoint" />
            <mxPoint x="350" y="260" as="targetPoint" />
          </mxGeometry>
        </mxCell>
        <mxCell id="MXucs27VVyxfBu9uyTxn-49" value="" style="endArrow=classic;html=1;rounded=0;" parent="1" edge="1" source="VtvNqMEHdlJ7I6D5ilD2-10">
          <mxGeometry width="50" height="50" relative="1" as="geometry">
            <mxPoint x="536.8000000000002" y="838.1800000000001" as="sourcePoint" />
            <mxPoint x="430" y="630" as="targetPoint" />
            <Array as="points">
              <mxPoint x="430" y="840" />
            </Array>
          </mxGeometry>
        </mxCell>
        <mxCell id="MXucs27VVyxfBu9uyTxn-50" value="用户授权等其他回调" style="text;html=1;strokeColor=none;fillColor=none;align=center;verticalAlign=middle;whiteSpace=wrap;rounded=0;" parent="1" vertex="1">
          <mxGeometry x="690" y="736" width="90" height="30" as="geometry" />
        </mxCell>
        <mxCell id="MXucs27VVyxfBu9uyTxn-53" value="CPSP平台" style="text;html=1;strokeColor=none;fillColor=none;align=center;verticalAlign=middle;whiteSpace=wrap;rounded=0;" parent="1" vertex="1">
          <mxGeometry x="760" y="215" width="60" height="30" as="geometry" />
        </mxCell>
        <mxCell id="MXucs27VVyxfBu9uyTxn-55" value="融合检索" style="text;html=1;strokeColor=none;fillColor=none;align=center;verticalAlign=middle;whiteSpace=wrap;rounded=0;" parent="1" vertex="1">
          <mxGeometry x="-150" y="597" width="60" height="30" as="geometry" />
        </mxCell>
        <mxCell id="MXucs27VVyxfBu9uyTxn-60" value="同步元数据" style="text;html=1;strokeColor=none;fillColor=none;align=center;verticalAlign=middle;whiteSpace=wrap;rounded=0;" parent="1" vertex="1">
          <mxGeometry x="270" y="670" width="100" height="20" as="geometry" />
        </mxCell>
        <mxCell id="MXucs27VVyxfBu9uyTxn-65" value="" style="endArrow=classic;html=1;rounded=0;exitX=0.16;exitY=0.55;exitDx=0;exitDy=0;exitPerimeter=0;entryX=1;entryY=0.5;entryDx=0;entryDy=0;" parent="1" source="MXucs27VVyxfBu9uyTxn-61" edge="1" target="MXucs27VVyxfBu9uyTxn-22">
          <mxGeometry width="50" height="50" relative="1" as="geometry">
            <mxPoint x="320" y="810" as="sourcePoint" />
            <mxPoint x="250" y="770" as="targetPoint" />
          </mxGeometry>
        </mxCell>
        <mxCell id="MXucs27VVyxfBu9uyTxn-66" value="业务搜索，元数据同步" style="text;html=1;strokeColor=none;fillColor=none;align=center;verticalAlign=middle;whiteSpace=wrap;rounded=0;" parent="1" vertex="1">
          <mxGeometry x="530" y="367" width="140" height="3" as="geometry" />
        </mxCell>
        <mxCell id="MXucs27VVyxfBu9uyTxn-67" value="业务搜索，元数据同步" style="text;html=1;strokeColor=none;fillColor=none;align=center;verticalAlign=middle;whiteSpace=wrap;rounded=0;" parent="1" vertex="1">
          <mxGeometry x="520" y="470" width="140" height="3" as="geometry" />
        </mxCell>
        <mxCell id="MXucs27VVyxfBu9uyTxn-68" value="业务搜索，元数据同步" style="text;html=1;strokeColor=none;fillColor=none;align=center;verticalAlign=middle;whiteSpace=wrap;rounded=0;" parent="1" vertex="1">
          <mxGeometry x="500" y="570" width="140" height="3" as="geometry" />
        </mxCell>
        <mxCell id="MXucs27VVyxfBu9uyTxn-69" value="埋点通道服务" style="rounded=0;whiteSpace=wrap;html=1;fillColor=#FFFFFF;" parent="1" vertex="1">
          <mxGeometry x="-260" y="297.5" width="120" height="60" as="geometry" />
        </mxCell>
        <mxCell id="MXucs27VVyxfBu9uyTxn-74" value="运营数据" style="text;html=1;strokeColor=none;fillColor=none;align=center;verticalAlign=middle;whiteSpace=wrap;rounded=0;" parent="1" vertex="1">
          <mxGeometry x="-250" y="610" width="60" height="30" as="geometry" />
        </mxCell>
        <mxCell id="VtvNqMEHdlJ7I6D5ilD2-1" value="" style="rounded=0;whiteSpace=wrap;html=1;fillColor=#33FFFF;" parent="1" vertex="1">
          <mxGeometry x="-660" y="185" width="110" height="715" as="geometry" />
        </mxCell>
        <mxCell id="VtvNqMEHdlJ7I6D5ilD2-2" value="智能座舱" style="rounded=0;whiteSpace=wrap;html=1;" parent="1" vertex="1">
          <mxGeometry x="-652.5" y="402.5" width="95" height="60" as="geometry" />
        </mxCell>
        <mxCell id="VtvNqMEHdlJ7I6D5ilD2-3" value="运营Portal" style="rounded=0;whiteSpace=wrap;html=1;" parent="1" vertex="1">
          <mxGeometry x="-652.5" y="610" width="95" height="60" as="geometry" />
        </mxCell>
        <mxCell id="VtvNqMEHdlJ7I6D5ilD2-5" value="OP网关" style="rounded=0;whiteSpace=wrap;html=1;" parent="1" vertex="1">
          <mxGeometry x="-500" y="617" width="80" height="51" as="geometry" />
        </mxCell>
        <mxCell id="VtvNqMEHdlJ7I6D5ilD2-8" value="业务网关" style="rounded=0;whiteSpace=wrap;html=1;" parent="1" vertex="1">
          <mxGeometry x="-493" y="409.5" width="80" height="51" as="geometry" />
        </mxCell>
        <mxCell id="VtvNqMEHdlJ7I6D5ilD2-9" value="" style="endArrow=classic;html=1;rounded=0;entryX=0;entryY=0.5;entryDx=0;entryDy=0;exitX=1;exitY=0.5;exitDx=0;exitDy=0;" parent="1" source="VtvNqMEHdlJ7I6D5ilD2-2" target="VtvNqMEHdlJ7I6D5ilD2-8" edge="1">
          <mxGeometry width="50" height="50" relative="1" as="geometry">
            <mxPoint x="-560" y="480" as="sourcePoint" />
            <mxPoint x="-510" y="430" as="targetPoint" />
          </mxGeometry>
        </mxCell>
        <mxCell id="VtvNqMEHdlJ7I6D5ilD2-10" value="回调网关" style="rounded=0;whiteSpace=wrap;html=1;" parent="1" vertex="1">
          <mxGeometry x="-493" y="810" width="80" height="51" as="geometry" />
        </mxCell>
        <mxCell id="VtvNqMEHdlJ7I6D5ilD2-11" value="" style="endArrow=classic;html=1;rounded=0;exitX=1;exitY=0.5;exitDx=0;exitDy=0;entryX=0;entryY=0.5;entryDx=0;entryDy=0;" parent="1" source="VtvNqMEHdlJ7I6D5ilD2-3" target="VtvNqMEHdlJ7I6D5ilD2-5" edge="1">
          <mxGeometry width="50" height="50" relative="1" as="geometry">
            <mxPoint x="-550" y="680" as="sourcePoint" />
            <mxPoint x="-500" y="630" as="targetPoint" />
          </mxGeometry>
        </mxCell>
        <mxCell id="VtvNqMEHdlJ7I6D5ilD2-13" value="Elastic Search" style="text;html=1;strokeColor=none;fillColor=none;align=center;verticalAlign=middle;whiteSpace=wrap;rounded=0;" parent="1" vertex="1">
          <mxGeometry x="-150" y="706" width="60" height="30" as="geometry" />
        </mxCell>
        <mxCell id="VtvNqMEHdlJ7I6D5ilD2-14" value="" style="endArrow=classic;html=1;rounded=0;" parent="1" edge="1">
          <mxGeometry width="50" height="50" relative="1" as="geometry">
            <mxPoint x="-220" y="520" as="sourcePoint" />
            <mxPoint x="-289.60725075528694" y="736" as="targetPoint" />
          </mxGeometry>
        </mxCell>
        <mxCell id="VtvNqMEHdlJ7I6D5ilD2-15" value="" style="endArrow=classic;html=1;rounded=0;exitX=1;exitY=0.5;exitDx=0;exitDy=0;entryX=0;entryY=0.5;entryDx=0;entryDy=0;" parent="1" source="VtvNqMEHdlJ7I6D5ilD2-5" target="MXucs27VVyxfBu9uyTxn-8" edge="1">
          <mxGeometry width="50" height="50" relative="1" as="geometry">
            <mxPoint x="-400" y="660" as="sourcePoint" />
            <mxPoint x="-350" y="610" as="targetPoint" />
          </mxGeometry>
        </mxCell>
        <mxCell id="VtvNqMEHdlJ7I6D5ilD2-18" value="" style="endArrow=classic;html=1;rounded=0;exitX=1;exitY=0.5;exitDx=0;exitDy=0;entryX=0;entryY=0.5;entryDx=0;entryDy=0;" parent="1" source="MXucs27VVyxfBu9uyTxn-8" target="MXucs27VVyxfBu9uyTxn-6" edge="1">
          <mxGeometry width="50" height="50" relative="1" as="geometry">
            <mxPoint x="-70" y="560" as="sourcePoint" />
            <mxPoint x="-20" y="510" as="targetPoint" />
          </mxGeometry>
        </mxCell>
        <mxCell id="VtvNqMEHdlJ7I6D5ilD2-22" value="" style="endArrow=classic;html=1;rounded=0;entryX=0;entryY=0.5;entryDx=0;entryDy=0;exitX=1;exitY=0.5;exitDx=0;exitDy=0;" parent="1" source="VtvNqMEHdlJ7I6D5ilD2-8" target="MXucs27VVyxfBu9uyTxn-69" edge="1">
          <mxGeometry width="50" height="50" relative="1" as="geometry">
            <mxPoint x="-410" y="470" as="sourcePoint" />
            <mxPoint x="-360" y="420" as="targetPoint" />
          </mxGeometry>
        </mxCell>
        <mxCell id="VtvNqMEHdlJ7I6D5ilD2-23" value="大数据平台" style="rounded=0;whiteSpace=wrap;html=1;" parent="1" vertex="1">
          <mxGeometry x="-30" y="298" width="120" height="60" as="geometry" />
        </mxCell>
        <mxCell id="VtvNqMEHdlJ7I6D5ilD2-24" value="" style="endArrow=classic;html=1;rounded=0;exitX=1;exitY=0.5;exitDx=0;exitDy=0;" parent="1" source="MXucs27VVyxfBu9uyTxn-69" target="VtvNqMEHdlJ7I6D5ilD2-23" edge="1">
          <mxGeometry width="50" height="50" relative="1" as="geometry">
            <mxPoint x="-140" y="370" as="sourcePoint" />
            <mxPoint x="-90" y="320" as="targetPoint" />
          </mxGeometry>
        </mxCell>
        <mxCell id="VtvNqMEHdlJ7I6D5ilD2-25" value="" style="endArrow=classic;html=1;rounded=0;entryX=0;entryY=0.5;entryDx=0;entryDy=0;exitX=1;exitY=0.5;exitDx=0;exitDy=0;" parent="1" source="VtvNqMEHdlJ7I6D5ilD2-8" target="MXucs27VVyxfBu9uyTxn-8" edge="1">
          <mxGeometry width="50" height="50" relative="1" as="geometry">
            <mxPoint x="-403" y="445" as="sourcePoint" />
            <mxPoint x="-250" y="337.5" as="targetPoint" />
          </mxGeometry>
        </mxCell>
        <mxCell id="VtvNqMEHdlJ7I6D5ilD2-26" value="分发" style="text;html=1;strokeColor=none;fillColor=none;align=center;verticalAlign=middle;whiteSpace=wrap;rounded=0;" parent="1" vertex="1">
          <mxGeometry x="-10" y="403" width="60" height="30" as="geometry" />
        </mxCell>
        <mxCell id="VtvNqMEHdlJ7I6D5ilD2-27" value="分发" style="text;html=1;strokeColor=none;fillColor=none;align=center;verticalAlign=middle;whiteSpace=wrap;rounded=0;" parent="1" vertex="1">
          <mxGeometry x="40" y="433" width="60" height="30" as="geometry" />
        </mxCell>
        <mxCell id="VtvNqMEHdlJ7I6D5ilD2-28" value="分发" style="text;html=1;strokeColor=none;fillColor=none;align=center;verticalAlign=middle;whiteSpace=wrap;rounded=0;" parent="1" vertex="1">
          <mxGeometry x="20" y="525" width="60" height="30" as="geometry" />
        </mxCell>
        <mxCell id="7Pp4aDeVOUlTDWOkgIp9-5" value="" style="endArrow=classic;html=1;rounded=0;exitX=0.69;exitY=0.632;exitDx=0;exitDy=0;exitPerimeter=0;entryX=0.4;entryY=0.1;entryDx=0;entryDy=0;entryPerimeter=0;" edge="1" parent="1" source="7Pp4aDeVOUlTDWOkgIp9-2" target="MXucs27VVyxfBu9uyTxn-61">
          <mxGeometry width="50" height="50" relative="1" as="geometry">
            <mxPoint x="370" y="700" as="sourcePoint" />
            <mxPoint x="420" y="650" as="targetPoint" />
          </mxGeometry>
        </mxCell>
        <mxCell id="7Pp4aDeVOUlTDWOkgIp9-6" value="" style="endArrow=classic;html=1;rounded=0;exitX=0;exitY=0.5;exitDx=0;exitDy=0;" edge="1" parent="1" source="MXucs27VVyxfBu9uyTxn-22">
          <mxGeometry width="50" height="50" relative="1" as="geometry">
            <mxPoint x="80" y="820" as="sourcePoint" />
            <mxPoint x="-270" y="768.0930232558139" as="targetPoint" />
          </mxGeometry>
        </mxCell>
        <mxCell id="7Pp4aDeVOUlTDWOkgIp9-10" value="MySQL" style="shape=cylinder3;whiteSpace=wrap;html=1;boundedLbl=1;backgroundOutline=1;size=15;fillColor=#F2F2F2;" vertex="1" parent="1">
          <mxGeometry x="-340" y="736" width="60" height="80" as="geometry" />
        </mxCell>
      </root>
    </mxGraphModel>
  </diagram>
</mxfile>
